<?xml version="1.0" encoding="UTF-8"?>
<!DOCTYPE svg PUBLIC "-//W3C//DTD SVG 1.1//EN" "http://www.w3.org/Graphics/SVG/1.1/DTD/svg11.dtd">
<svg xmlns="http://www.w3.org/2000/svg" version="1.1" width="225px" height="225px" style="shape-rendering:geometricPrecision; text-rendering:geometricPrecision; image-rendering:optimizeQuality; fill-rule:evenodd; clip-rule:evenodd" xmlns:xlink="http://www.w3.org/1999/xlink">
<g><path style="opacity:1" fill="#fdfcfc" d="M -0.5,-0.5 C 74.5,-0.5 149.5,-0.5 224.5,-0.5C 224.5,74.5 224.5,149.5 224.5,224.5C 149.5,224.5 74.5,224.5 -0.5,224.5C -0.5,149.5 -0.5,74.5 -0.5,-0.5 Z"/></g>
<g><path style="opacity:1" fill="#c2342b" d="M 103.5,4.5 C 156.722,4.25049 193.555,28.5838 214,77.5C 227.114,123.467 216.281,162.634 181.5,195C 151.071,218.742 117.071,225.742 79.5,216C 28.5138,195.985 3.34709,158.485 4,103.5C 10.0277,59.2492 33.5277,28.4159 74.5,11C 84.1083,8.01146 93.775,5.8448 103.5,4.5 Z"/></g>
<g><path style="opacity:1" fill="#faf8f7" d="M 103.5,7.5 C 153.985,7.13644 189.485,29.8031 210,75.5C 224.714,123.307 213.214,163.473 175.5,196C 139.269,220.944 101.269,223.944 61.5,205C 19.5675,178.288 2.06748,140.121 9,90.5C 22.5978,42.3997 54.0978,14.733 103.5,7.5 Z"/></g>
<g><path style="opacity:1" fill="#c3372c" d="M 96.5,192.5 C 98.1765,193.183 98.8432,194.517 98.5,196.5C 98.5,199.167 98.5,201.833 98.5,204.5C 99.8333,204.5 101.167,204.5 102.5,204.5C 102.11,200.606 102.777,196.94 104.5,193.5C 105.888,198.29 105.554,202.957 103.5,207.5C 100.718,208.952 98.2185,208.619 96,206.5C 95.1849,201.648 95.3516,196.981 96.5,192.5 Z"/></g>
<g><path style="opacity:1" fill="#bb7671" d="M 120.5,193.5 C 121.209,192.596 122.209,192.263 123.5,192.5C 123.5,194.167 123.5,195.833 123.5,197.5C 122.978,195.781 121.978,194.448 120.5,193.5 Z"/></g>
<g><path style="opacity:1" fill="#bf352c" d="M 159.5,178.5 C 160.497,178.47 161.164,178.97 161.5,180C 160.139,181.962 158.972,183.796 158,185.5C 160.042,185.123 162.209,185.123 164.5,185.5C 163.653,186.845 162.487,187.845 161,188.5C 160.517,189.448 160.351,190.448 160.5,191.5C 168.374,188.868 169.041,190.035 162.5,195C 161.365,195.749 160.365,195.583 159.5,194.5C 157.557,190.947 155.89,187.281 154.5,183.5C 155.855,181.479 157.521,179.812 159.5,178.5 Z"/></g>
<g><path style="opacity:1" fill="#be2d24" d="M 147.5,185.5 C 148.489,190.975 148.822,196.642 148.5,202.5C 147.325,202.719 146.325,202.386 145.5,201.5C 142.917,198.003 140.584,194.336 138.5,190.5C 139.002,189.479 139.668,189.312 140.5,190C 142.709,191.873 144.542,194.04 146,196.5C 146.483,195.552 146.649,194.552 146.5,193.5C 146.279,190.721 146.612,188.054 147.5,185.5 Z"/></g>
<g><path style="opacity:1" fill="#dba196" d="M 96.5,192.5 C 97.209,191.596 98.209,191.263 99.5,191.5C 99.7845,193.415 99.4511,195.081 98.5,196.5C 98.8432,194.517 98.1765,193.183 96.5,192.5 Z"/></g>
<g><path style="opacity:1" fill="#cc8e8c" d="M 147.5,185.5 C 146.612,188.054 146.279,190.721 146.5,193.5C 145.844,192.378 145.511,191.045 145.5,189.5C 145.585,187.667 146.252,186.334 147.5,185.5 Z"/></g>
<g><path style="opacity:1" fill="#bf3c33" d="M 65.5,179.5 C 67.0174,179.511 68.1841,180.177 69,181.5C 69.3333,184.5 69.6667,187.5 70,190.5C 70.8333,188.833 71.6667,187.167 72.5,185.5C 73.5,184.167 74.5,184.167 75.5,185.5C 73.536,189.754 71.8693,194.088 70.5,198.5C 69.1779,198.67 68.0113,198.337 67,197.5C 66.6667,193.833 66.3333,190.167 66,186.5C 64.7674,189.297 63.2674,191.963 61.5,194.5C 61.1667,193.667 60.8333,192.833 60.5,192C 62.0625,187.817 63.7291,183.65 65.5,179.5 Z"/></g>
<g><path style="opacity:1" fill="#bf382d" d="M 53.5,171.5 C 56.2431,171.077 57.5765,172.244 57.5,175C 56.2241,179.616 54.7241,184.116 53,188.5C 52.0938,185.546 50.9271,182.713 49.5,180C 48.2234,179.873 47.0567,180.373 46,181.5C 44.9412,181.37 44.1079,180.87 43.5,180C 47.0247,177.302 50.3581,174.469 53.5,171.5 Z"/></g>
<g><path style="opacity:1" fill="#f3ddd8" d="M 52.5,175.5 C 54.8075,176.405 54.8075,177.738 52.5,179.5C 51.3744,178.192 51.3744,176.858 52.5,175.5 Z"/></g>
<g><path style="opacity:1" fill="#bf372c" d="M 170.5,168.5 C 175.984,168.481 177.65,170.981 175.5,176C 177.5,176.833 179.5,177.667 181.5,178.5C 181,179.881 180,180.547 178.5,180.5C 176.845,179.772 175.179,179.605 173.5,180C 174.743,181.154 175.743,182.488 176.5,184C 175.975,184.692 175.308,185.192 174.5,185.5C 171.589,182.01 168.922,178.344 166.5,174.5C 168.278,172.736 169.611,170.736 170.5,168.5 Z"/></g>
<g><path style="opacity:1" fill="#f5e0dd" d="M 171.5,172.5 C 172.5,172.5 173.5,172.5 174.5,172.5C 174.716,174.681 173.883,176.347 172,177.5C 170.212,175.977 170.045,174.31 171.5,172.5 Z"/></g>
<g><path style="opacity:1" fill="#bc342b" d="M 45.5,161.5 C 47.2252,161.843 47.7252,162.843 47,164.5C 44.5,167 42,169.5 39.5,172C 38.365,172.749 37.365,172.583 36.5,171.5C 39.5222,168.147 42.5222,164.813 45.5,161.5 Z"/></g>
<g><path style="opacity:1" fill="#bc312b" d="M 181.5,156.5 C 182.978,156.238 184.311,156.571 185.5,157.5C 182.5,158.758 181.5,160.758 182.5,163.5C 189.137,158.634 191.97,160.3 191,168.5C 189.56,171.335 187.727,171.835 185.5,170C 188.215,169.125 189.548,167.292 189.5,164.5C 179.736,168.736 177.07,166.07 181.5,156.5 Z"/></g>
<g><path style="opacity:1" fill="#bb382f" d="M 99.5,41.5 C 130.058,38.2049 154.224,48.8716 172,73.5C 190.623,108.016 186.123,139.183 158.5,167C 130.673,188.301 101.673,189.968 71.5,172C 40.8865,147.047 33.0531,116.214 48,79.5C 55.8838,65.9494 66.7172,55.4494 80.5,48C 86.8201,45.4423 93.1535,43.2756 99.5,41.5 Z"/></g>
<g><path style="opacity:1" fill="#be3731" d="M 34.5,146.5 C 38.3199,147.903 40.6532,150.736 41.5,155C 41.1667,155.5 40.8333,156 40.5,156.5C 39.5,155.833 38.5,155.167 37.5,154.5C 34.7867,156.382 31.9533,158.049 29,159.5C 27.7425,159.15 27.4092,158.483 28,157.5C 30.7433,155.212 33.5767,153.045 36.5,151C 34.9632,149.89 34.2965,148.39 34.5,146.5 Z"/></g>
<g><path style="opacity:1" fill="#bb3530" d="M 187.5,146.5 C 190.681,148.837 194.014,151.004 197.5,153C 198.337,154.011 198.67,155.178 198.5,156.5C 193.878,154.85 189.878,152.183 186.5,148.5C 186.863,147.817 187.196,147.15 187.5,146.5 Z"/></g>
<g><path style="opacity:1" fill="#be332b" d="M 28.5,129.5 C 29.5,129.5 30.5,129.5 31.5,129.5C 31.67,130.822 31.3366,131.989 30.5,133C 27.8041,133.765 25.3041,134.932 23,136.5C 22.51,137.793 22.3433,139.127 22.5,140.5C 26.1687,140.668 29.5021,139.668 32.5,137.5C 33.5827,138.365 33.7494,139.365 33,140.5C 23.0171,147.475 19.0171,145.142 21,133.5C 23.8491,132.622 26.3491,131.289 28.5,129.5 Z"/></g>
<g><path style="opacity:1" fill="#bf312a" d="M 193.5,129.5 C 194.5,129.5 195.5,129.5 196.5,129.5C 196.131,134.477 198.465,137.477 203.5,138.5C 204.386,139.325 204.719,140.325 204.5,141.5C 201.032,140.848 197.865,139.515 195,137.5C 194.167,138.5 193.333,139.5 192.5,140.5C 192.167,139.667 191.833,138.833 191.5,138C 192.275,135.178 192.942,132.344 193.5,129.5 Z"/></g>
<g><path style="opacity:1" fill="#c03a30" d="M 195.5,112.5 C 198.283,114.067 200.949,115.9 203.5,118C 205.473,118.495 207.473,118.662 209.5,118.5C 209.5,119.5 209.5,120.5 209.5,121.5C 204.394,120.925 199.894,122.259 196,125.5C 195.219,124.056 195.386,122.723 196.5,121.5C 198.002,120.917 199.335,120.084 200.5,119C 197.179,118.03 195.513,115.863 195.5,112.5 Z"/></g>
<g><path style="opacity:1" fill="#c6372e" d="M 21.5,113.5 C 24.1667,113.5 26.8333,113.5 29.5,113.5C 29.7507,116.909 29.4173,120.242 28.5,123.5C 22.1483,126.232 19.4816,124.232 20.5,117.5C 18.8333,117.5 17.1667,117.5 15.5,117.5C 15.5,116.5 15.5,115.5 15.5,114.5C 17.7354,114.795 19.7354,114.461 21.5,113.5 Z"/></g>
<g><path style="opacity:1" fill="#f3d1c2" d="M 22.5,116.5 C 23.8333,116.5 25.1667,116.5 26.5,116.5C 26.5,118.167 26.5,119.833 26.5,121.5C 23.0897,121.616 21.7564,119.95 22.5,116.5 Z"/></g>
<g><path style="opacity:1" fill="#ba3831" d="M 194.5,59.5 C 195.404,60.209 195.737,61.209 195.5,62.5C 188.058,60.0405 187.725,61.0405 194.5,65.5C 195.833,66.5 195.833,67.5 194.5,68.5C 190.882,65.5748 189.049,66.5748 189,71.5C 186.838,69.3531 184.504,69.3531 182,71.5C 180.948,75.2928 182.448,77.2928 186.5,77.5C 185.672,78.4147 184.672,79.0814 183.5,79.5C 179.964,77.8355 178.464,75.1689 179,71.5C 179.383,70.944 179.883,70.6107 180.5,70.5C 181.289,70.2172 181.956,69.7172 182.5,69C 180.167,68.6667 177.833,68.3333 175.5,68C 177.473,67.5045 179.473,67.3379 181.5,67.5C 181.281,66.325 181.614,65.325 182.5,64.5C 184.671,64.7265 186.838,65.0598 189,65.5C 189.617,64.5509 189.451,63.7175 188.5,63C 187.062,62.7811 185.729,62.2811 184.5,61.5C 187.654,59.9741 190.987,59.3075 194.5,59.5 Z"/></g>
<g><path style="opacity:1" fill="#b93933" d="M 189.5,57.5 C 186.735,59.4263 183.735,60.0929 180.5,59.5C 179.145,60.1882 178.145,61.1882 177.5,62.5C 176.085,63.2894 174.585,63.9561 173,64.5C 171.743,64.1501 171.409,63.4835 172,62.5C 174.5,60.6667 177,58.8333 179.5,57C 181.135,56.4604 182.468,56.9604 183.5,58.5C 183.833,57.1667 184.167,55.8333 184.5,54.5C 186.598,54.9572 188.264,55.9572 189.5,57.5 Z"/></g>
<g><path style="opacity:1" fill="#e5b9b0" d="M 189.5,57.5 C 191.306,58.0241 192.972,58.6908 194.5,59.5C 190.987,59.3075 187.654,59.9741 184.5,61.5C 185.729,62.2811 187.062,62.7811 188.5,63C 189.451,63.7175 189.617,64.5509 189,65.5C 186.838,65.0598 184.671,64.7265 182.5,64.5C 181.614,65.325 181.281,66.325 181.5,67.5C 179.473,67.3379 177.473,67.5045 175.5,68C 177.833,68.3333 180.167,68.6667 182.5,69C 181.956,69.7172 181.289,70.2172 180.5,70.5C 178.735,69.5386 176.735,69.2053 174.5,69.5C 174.5,68.5 174.5,67.5 174.5,66.5C 176.5,66.5 178.5,66.5 180.5,66.5C 180.5,65.1667 180.5,63.8333 180.5,62.5C 179.5,62.5 178.5,62.5 177.5,62.5C 178.145,61.1882 179.145,60.1882 180.5,59.5C 183.735,60.0929 186.735,59.4263 189.5,57.5 Z"/></g>
<g><path style="opacity:1" fill="#ac3b2f" d="M 43.5,59.5 C 44.8333,60.1667 44.8333,60.8333 43.5,61.5C 39.7113,61.2627 39.7113,60.5961 43.5,59.5 Z"/></g>
<g><path style="opacity:1" fill="#be3a2f" d="M 41.5,57.5 C 37.3615,60.3897 37.6948,62.3897 42.5,63.5C 45.6192,65.61 47.9525,68.2766 49.5,71.5C 47.8002,71.6261 46.3002,72.2927 45,73.5C 39.8443,70.6614 39.3443,71.3281 43.5,75.5C 43,75.8333 42.5,76.1667 42,76.5C 39.2796,74.4366 37.2796,71.77 36,68.5C 34.883,69.9494 34.2163,71.6161 34,73.5C 32.8438,74.9928 32.0104,74.8261 31.5,73C 32.5042,70.6496 33.5042,68.3163 34.5,66C 32.4731,66.4978 30.4731,66.3311 28.5,65.5C 29.0253,64.8076 29.6919,64.3076 30.5,64C 28.4407,62.8145 28.274,61.6479 30,60.5C 31.2613,60.7591 32.2613,61.4258 33,62.5C 33.2878,59.5276 32.4545,56.861 30.5,54.5C 33.2441,53.5094 35.9107,53.8427 38.5,55.5C 36.876,56.8689 36.376,58.5355 37,60.5C 38.3076,58.3586 39.8076,56.3586 41.5,54.5C 42.5624,55.4246 42.5624,56.4246 41.5,57.5 Z"/></g>
<g><path style="opacity:1" fill="#d8776d" d="M 39.5,64.5 C 41.7339,66.3051 44.0672,68.1384 46.5,70C 45.6753,71.6883 44.6753,71.8549 43.5,70.5C 41.7224,68.736 40.3891,66.736 39.5,64.5 Z"/></g>
<g><path style="opacity:1" fill="#deb2a3" d="M 41.5,57.5 C 42.1667,58.1667 42.8333,58.8333 43.5,59.5C 39.7113,60.5961 39.7113,61.2627 43.5,61.5C 43.1667,62.1667 42.8333,62.8333 42.5,63.5C 37.6948,62.3897 37.3615,60.3897 41.5,57.5 Z"/></g>
<g><path style="opacity:1" fill="#fbf9f8" d="M 103.5,43.5 C 143.294,42.8112 168.794,61.4778 180,99.5C 183.642,126.696 175.142,149.196 154.5,167C 127.285,185.604 99.6188,186.271 71.5,169C 47.5491,149.242 38.7158,124.075 45,93.5C 55.0884,65.721 74.5884,49.0543 103.5,43.5 Z"/></g>
<g><path style="opacity:1" fill="#b72a26" d="M 151.5,148.5 C 151.5,136.833 151.5,125.167 151.5,113.5C 149.516,113.383 147.85,114.05 146.5,115.5C 145.289,116.274 145.289,117.107 146.5,118C 146,118.167 145.5,118.333 145,118.5C 141.865,117.568 138.699,117.568 135.5,118.5C 140.664,115.216 146.331,112.882 152.5,111.5C 152.829,124.011 152.495,136.345 151.5,148.5 Z"/></g>
<g><path style="opacity:1" fill="#d8271d" d="M 110.5,160.5 C 111.209,161.404 112.209,161.737 113.5,161.5C 113.5,150.167 113.5,138.833 113.5,127.5C 120.538,123.988 127.871,120.988 135.5,118.5C 138.699,117.568 141.865,117.568 145,118.5C 145.5,118.333 146,118.167 146.5,118C 145.289,117.107 145.289,116.274 146.5,115.5C 147.85,114.05 149.516,113.383 151.5,113.5C 151.5,125.167 151.5,136.833 151.5,148.5C 138.342,154.488 124.842,159.821 111,164.5C 97.6134,160.148 84.6134,154.815 72,148.5C 71.1674,136.153 71.3341,123.82 72.5,111.5C 85.0731,116.704 97.5731,122.038 110,127.5C 110.5,138.495 110.667,149.495 110.5,160.5 Z"/></g>
<g><path style="opacity:1" fill="#d99790" d="M 113.5,127.5 C 113.5,138.833 113.5,150.167 113.5,161.5C 112.209,161.737 111.209,161.404 110.5,160.5C 112.159,149.705 113.159,138.705 113.5,127.5 Z"/></g>
<g><path style="opacity:1" fill="#eed3d0" d="M 155.5,95.5 C 155.5,95.8333 155.5,96.1667 155.5,96.5C 147.51,98.8262 139.51,101.16 131.5,103.5C 131.5,103.167 131.5,102.833 131.5,102.5C 132.167,102.167 132.833,101.833 133.5,101.5C 140.995,98.3432 148.328,95.0098 155.5,91.5C 157.516,89.7726 159.849,88.9392 162.5,89C 159.31,90.7115 156.31,92.7115 153.5,95C 154.094,95.4643 154.761,95.631 155.5,95.5 Z"/></g>
<g><path style="opacity:1" fill="#bb372f" d="M 155.5,91.5 C 148.328,95.0098 140.995,98.3432 133.5,101.5C 135.031,100.075 134.698,99.4088 132.5,99.5C 132.611,98.8826 132.944,98.3826 133.5,98C 139.107,96.632 144.441,94.7987 149.5,92.5C 151.435,91.8505 153.435,91.5172 155.5,91.5 Z"/></g>
<g><path style="opacity:1" fill="#c1372d" d="M 114.5,79.5 C 109.355,82.5739 104.022,85.4072 98.5,88C 106.77,85.7976 114.936,82.9643 123,79.5C 124.722,79.6107 124.888,80.1107 123.5,81C 116.75,83.806 110.083,86.806 103.5,90C 104.833,90.6667 106.167,90.6667 107.5,90C 111.33,88.0017 115.33,86.5017 119.5,85.5C 120.167,85.5 120.5,85.8333 120.5,86.5C 116.86,88.3201 113.193,90.1534 109.5,92C 115.581,90.6974 121.581,88.8641 127.5,86.5C 128.492,86.3284 129.158,86.6618 129.5,87.5C 123.885,89.9708 118.219,92.4708 112.5,95C 111.304,95.6543 111.304,96.1543 112.5,96.5C 121.804,92.9553 131.137,89.622 140.5,86.5C 134.021,90.2406 127.354,93.7406 120.5,97C 129.512,95.0323 138.346,92.1989 147,88.5C 147.5,88.6667 148,88.8333 148.5,89C 147.584,89.2784 146.918,89.7784 146.5,90.5C 145.391,90.5569 144.391,90.8902 143.5,91.5C 138.171,93.8308 132.838,96.1641 127.5,98.5C 125.22,99.6401 122.886,100.807 120.5,102C 122.197,102.384 123.863,102.218 125.5,101.5C 124.306,102.777 122.64,103.444 120.5,103.5C 118.833,103.333 117.167,103.167 115.5,103C 116.938,102.781 118.271,102.281 119.5,101.5C 117.577,100.692 115.577,100.192 113.5,100C 114.741,98.5135 114.241,97.6801 112,97.5C 110.893,97.5852 109.893,97.9186 109,98.5C 108.342,96.892 108.842,95.7253 110.5,95C 108.432,94.3131 106.432,94.4798 104.5,95.5C 103.614,94.675 103.281,93.675 103.5,92.5C 102.127,92.6567 100.793,92.49 99.5,92C 100.902,90.6575 100.569,89.8242 98.5,89.5C 96.6175,90.0243 94.7842,90.6909 93,91.5C 91.2399,90.3699 89.4066,89.3699 87.5,88.5C 88.9079,87.7568 90.2412,86.9234 91.5,86C 90.9056,85.5357 90.2389,85.369 89.5,85.5C 95.903,82.1338 102.57,79.1338 109.5,76.5C 110.167,76.6667 110.833,76.8333 111.5,77C 105.5,80 99.5,83 93.5,86C 100.467,83.957 107.467,81.7903 114.5,79.5 Z"/></g>
<g><path style="opacity:1" fill="#a76860" d="M 156.5,97.5 C 156.5,96.8333 156.167,96.5 155.5,96.5C 155.5,96.1667 155.5,95.8333 155.5,95.5C 169.474,91.3728 169.808,92.0394 156.5,97.5 Z"/></g>
<g><path style="opacity:1" fill="#d62920" d="M 93.5,79.5 C 94.4916,79.3284 95.1583,79.6618 95.5,80.5C 92.522,81.989 89.522,83.489 86.5,85C 87.448,85.4828 88.448,85.6495 89.5,85.5C 90.2389,85.369 90.9056,85.5357 91.5,86C 90.2412,86.9234 88.9079,87.7568 87.5,88.5C 89.4066,89.3699 91.2399,90.3699 93,91.5C 94.7842,90.6909 96.6175,90.0243 98.5,89.5C 100.569,89.8242 100.902,90.6575 99.5,92C 100.793,92.49 102.127,92.6567 103.5,92.5C 103.281,93.675 103.614,94.675 104.5,95.5C 106.432,94.4798 108.432,94.3131 110.5,95C 108.842,95.7253 108.342,96.892 109,98.5C 109.893,97.9186 110.893,97.5852 112,97.5C 114.241,97.6801 114.741,98.5135 113.5,100C 115.577,100.192 117.577,100.692 119.5,101.5C 118.271,102.281 116.938,102.781 115.5,103C 117.167,103.167 118.833,103.333 120.5,103.5C 122.64,103.444 124.306,102.777 125.5,101.5C 126.167,101.5 126.5,101.167 126.5,100.5C 128.435,99.8505 130.435,99.5172 132.5,99.5C 134.698,99.4088 135.031,100.075 133.5,101.5C 132.833,101.833 132.167,102.167 131.5,102.5C 128.903,102.533 127.903,103.533 128.5,105.5C 129.739,105.058 130.739,104.391 131.5,103.5C 139.51,101.16 147.51,98.8262 155.5,96.5C 156.167,96.5 156.5,96.8333 156.5,97.5C 141.341,103.583 126.341,109.917 111.5,116.5C 95.9661,110.301 80.6328,103.634 65.5,96.5C 63.2071,94.3687 60.8737,92.3687 58.5,90.5C 65.9839,86.219 73.9839,82.8857 82.5,80.5C 82.6107,81.1174 82.944,81.6174 83.5,82C 82.3279,82.4186 81.3279,83.0853 80.5,84C 80.8333,84.1667 81.1667,84.3333 81.5,84.5C 83.8852,83.3385 86.2186,82.3385 88.5,81.5C 90.0495,80.5592 91.7162,79.8925 93.5,79.5 Z"/></g>
<g><path style="opacity:1" fill="#d37468" d="M 131.5,102.5 C 131.5,102.833 131.5,103.167 131.5,103.5C 130.739,104.391 129.739,105.058 128.5,105.5C 127.903,103.533 128.903,102.533 131.5,102.5 Z"/></g>
<g><path style="opacity:1" fill="#dd8477" d="M 127.5,98.5 C 127.167,99.1667 126.833,99.8333 126.5,100.5C 126.5,101.167 126.167,101.5 125.5,101.5C 123.863,102.218 122.197,102.384 120.5,102C 122.886,100.807 125.22,99.6401 127.5,98.5 Z"/></g>
<g><path style="opacity:1" fill="#f1dbd7" d="M 143.5,91.5 C 143.369,92.2389 143.536,92.9056 144,93.5C 145.699,92.5939 147.533,92.2606 149.5,92.5C 144.441,94.7987 139.107,96.632 133.5,98C 132.944,98.3826 132.611,98.8826 132.5,99.5C 130.435,99.5172 128.435,99.8505 126.5,100.5C 126.833,99.8333 127.167,99.1667 127.5,98.5C 132.838,96.1641 138.171,93.8308 143.5,91.5 Z"/></g>
<g><path style="opacity:1" fill="#be3937" d="M 58.5,90.5 C 60.8737,92.3687 63.2071,94.3687 65.5,96.5C 61.9471,95.4826 58.6138,93.9826 55.5,92C 56.2438,90.9614 57.2438,90.4614 58.5,90.5 Z"/></g>
<g><path style="opacity:1" fill="#f3e4e0" d="M 146.5,90.5 C 146.918,89.7784 147.584,89.2784 148.5,89C 148,88.8333 147.5,88.6667 147,88.5C 138.346,92.1989 129.512,95.0323 120.5,97C 127.354,93.7406 134.021,90.2406 140.5,86.5C 131.137,89.622 121.804,92.9553 112.5,96.5C 111.304,96.1543 111.304,95.6543 112.5,95C 118.219,92.4708 123.885,89.9708 129.5,87.5C 131.807,86.3466 134.14,85.1799 136.5,84C 133.214,83.9302 130.214,84.7635 127.5,86.5C 121.581,88.8641 115.581,90.6974 109.5,92C 113.193,90.1534 116.86,88.3201 120.5,86.5C 123.961,85.2694 127.294,83.7694 130.5,82C 126.604,82.4655 122.937,83.6322 119.5,85.5C 115.33,86.5017 111.33,88.0017 107.5,90C 106.167,90.6667 104.833,90.6667 103.5,90C 110.083,86.806 116.75,83.806 123.5,81C 124.888,80.1107 124.722,79.6107 123,79.5C 114.936,82.9643 106.77,85.7976 98.5,88C 104.022,85.4072 109.355,82.5739 114.5,79.5C 117.016,79.2447 119.35,78.4114 121.5,77C 120.906,76.5357 120.239,76.369 119.5,76.5C 119.775,74.2417 120.775,73.9084 122.5,75.5C 124.078,74.3595 125.744,73.8595 127.5,74C 126.672,74.9147 125.672,75.5814 124.5,76C 127.158,77.5466 129.825,77.3799 132.5,75.5C 135.063,75.737 135.063,76.237 132.5,77C 132.833,77.3333 133.167,77.6667 133.5,78C 135.443,77.6948 137.443,77.6948 139.5,78C 139.043,78.414 138.709,78.914 138.5,79.5C 140.637,80.0798 142.47,81.0798 144,82.5C 146.508,82.1809 149.008,82.0142 151.5,82C 150.672,82.9147 149.672,83.5814 148.5,84C 150.301,84.3173 150.634,84.984 149.5,86C 149.833,86.1667 150.167,86.3333 150.5,86.5C 151.43,83.106 153.097,82.9393 155.5,86C 152.365,86.8005 150.198,88.6338 149,91.5C 148.329,90.7476 147.496,90.4142 146.5,90.5 Z"/></g>
<g><path style="opacity:1" fill="#b19294" d="M 140.5,86.5 C 142.425,84.5381 144.758,83.7048 147.5,84C 145.35,85.4114 143.016,86.2447 140.5,86.5 Z"/></g>
<g><path style="opacity:1" fill="#a35c54" d="M 129.5,87.5 C 129.158,86.6618 128.492,86.3284 127.5,86.5C 130.214,84.7635 133.214,83.9302 136.5,84C 134.14,85.1799 131.807,86.3466 129.5,87.5 Z"/></g>
<g><path style="opacity:1" fill="#ab564f" d="M 120.5,86.5 C 120.5,85.8333 120.167,85.5 119.5,85.5C 122.937,83.6322 126.604,82.4655 130.5,82C 127.294,83.7694 123.961,85.2694 120.5,86.5 Z"/></g>
<g><path style="opacity:1" fill="#9b6a6f" d="M 119.5,76.5 C 120.239,76.369 120.906,76.5357 121.5,77C 119.35,78.4114 117.016,79.2447 114.5,79.5C 115.167,78.8333 115.833,78.1667 116.5,77.5C 117.609,77.4431 118.609,77.1098 119.5,76.5 Z"/></g>
<g><path style="opacity:1" fill="#a43d37" d="M 108.5,73.5 C 104.361,76.0716 100.027,78.4049 95.5,80.5C 95.1583,79.6618 94.4916,79.3284 93.5,79.5C 98.3304,77.2577 103.33,75.2577 108.5,73.5 Z"/></g>
<g><path style="opacity:1" fill="#b84537" d="M 88.5,81.5 C 86.2186,82.3385 83.8852,83.3385 81.5,84.5C 81.1667,84.3333 80.8333,84.1667 80.5,84C 81.3279,83.0853 82.3279,82.4186 83.5,82C 82.944,81.6174 82.6107,81.1174 82.5,80.5C 89.0688,76.5471 96.0688,73.7138 103.5,72C 97.675,74.7453 92.0084,77.7453 86.5,81C 87.0944,81.4643 87.7611,81.631 88.5,81.5 Z"/></g>
<g><path style="opacity:1" fill="#e7cbc8" d="M 116.5,77.5 C 115.833,78.1667 115.167,78.8333 114.5,79.5C 107.467,81.7903 100.467,83.957 93.5,86C 99.5,83 105.5,80 111.5,77C 110.833,76.8333 110.167,76.6667 109.5,76.5C 102.57,79.1338 95.903,82.1338 89.5,85.5C 88.448,85.6495 87.448,85.4828 86.5,85C 89.522,83.489 92.522,81.989 95.5,80.5C 100.027,78.4049 104.361,76.0716 108.5,73.5C 111.077,71.2105 114.077,70.0438 117.5,70C 109.707,73.0293 109.707,74.3626 117.5,74C 114.358,75.018 114.024,76.1847 116.5,77.5 Z"/></g>
<g><path style="opacity:1" fill="#c3362d" d="M 82.5,22.5 C 84.2624,22.3573 85.9291,22.6906 87.5,23.5C 88.897,27.3243 88.5636,30.991 86.5,34.5C 83.2747,35.041 80.4413,36.3743 78,38.5C 74.3396,36.8695 72.3396,34.2028 72,30.5C 73.9734,31.6399 75.8067,32.9733 77.5,34.5C 77.6097,32.9018 77.943,31.2352 78.5,29.5C 77.5,28.8333 76.5,28.1667 75.5,27.5C 77.7243,25.566 80.0576,23.8994 82.5,22.5 Z"/></g>
<g><path style="opacity:1" fill="#db9a8f" d="M 138.5,31.5 C 138.5,31.1667 138.5,30.8333 138.5,30.5C 141.941,30.3011 145.274,30.8011 148.5,32C 145.132,32.5428 141.799,32.3761 138.5,31.5 Z"/></g>
<g><path style="opacity:1" fill="#d99081" d="M 139.5,24.5 C 139.561,27.0495 140.894,28.5495 143.5,29C 140.562,29.7121 137.896,29.2121 135.5,27.5C 136.926,26.6588 138.26,25.6588 139.5,24.5 Z"/></g>
<g><path style="opacity:1" fill="#eabeb3" d="M 81.5,25.5 C 82.5,25.5 83.5,25.5 84.5,25.5C 84.6621,27.5273 84.4955,29.5273 84,31.5C 83.2825,32.4506 82.4491,32.6172 81.5,32C 82.3366,30.9887 82.67,29.8221 82.5,28.5C 78.9952,28.3059 78.6618,27.3059 81.5,25.5 Z"/></g>
<g><path style="opacity:1" fill="#be463f" d="M 138.5,31.5 C 141.799,32.3761 145.132,32.5428 148.5,32C 145.274,30.8011 141.941,30.3011 138.5,30.5C 136.396,30.7989 134.396,30.4656 132.5,29.5C 133.005,28.0815 134.005,27.4148 135.5,27.5C 137.896,29.2121 140.562,29.7121 143.5,29C 140.894,28.5495 139.561,27.0495 139.5,24.5C 140.462,22.0144 141.295,22.0144 142,24.5C 143.117,23.0506 143.784,21.3839 144,19.5C 144.333,20.8333 144.667,22.1667 145,23.5C 146.167,21.8333 147.333,20.1667 148.5,18.5C 149.081,20.5947 149.081,22.428 148.5,24C 150.044,23.5134 151.71,23.0134 153.5,22.5C 152.874,25.3149 151.54,27.8149 149.5,30C 151.863,30.5885 152.863,32.0885 152.5,34.5C 150.488,33.9862 148.488,33.8195 146.5,34C 146.694,35.4299 146.694,36.9299 146.5,38.5C 145.833,38.1667 145.167,37.8333 144.5,37.5C 143.376,38.914 142.376,40.414 141.5,42C 140.207,42.49 138.873,42.6567 137.5,42.5C 137.5,41.5 137.5,40.5 137.5,39.5C 139.346,39.7778 140.68,39.1112 141.5,37.5C 133.576,36.0377 133.576,34.8711 141.5,34C 139.881,33.7645 138.881,32.9311 138.5,31.5 Z"/></g>
<g><path style="opacity:1" fill="#bc362b" d="M 129.5,191.5 C 130.5,191.5 131.5,191.5 132.5,191.5C 133.648,196.43 134.315,201.43 134.5,206.5C 133.5,206.5 132.5,206.5 131.5,206.5C 131.374,201.414 130.707,196.414 129.5,191.5 Z"/></g>
<g><path style="opacity:1" fill="#c1342b" d="M 120.5,193.5 C 121.978,194.448 122.978,195.781 123.5,197.5C 123.5,200.833 123.5,204.167 123.5,207.5C 122.167,207.5 120.833,207.5 119.5,207.5C 116.141,196.544 114.808,196.878 115.5,208.5C 114.5,208.5 113.5,208.5 112.5,208.5C 112.5,203.5 112.5,198.5 112.5,193.5C 113.873,193.343 115.207,193.51 116.5,194C 119.578,202.609 120.911,202.443 120.5,193.5 Z"/></g>
</svg>
